<svg id="Layer_1" data-name="Layer 1" xmlns="http://www.w3.org/2000/svg" viewBox="0 0 500 500"><defs><style>.cls-1{fill:#00b172;}.cls-2{fill:none;stroke:#00b9ee;stroke-miterlimit:10;stroke-width:27px;}.cls-3{fill:#ef4423;}</style></defs><title>Artboard 1</title><path class="cls-1" d="M320.4,72.29a163.71,163.71,0,0,0-139,77.35,151.12,151.12,0,0,1,27.68-2.82A142.51,142.51,0,0,1,320.4,93.29c78.69,0,142.7,64,142.7,142.7,0,72.14-53.82,132-123.42,141.39A152,152,0,0,1,323,399.65C412.07,398.26,484.1,325.38,484.1,236,484.1,145.72,410.67,72.29,320.4,72.29Z"/><circle class="cls-2" cx="210.59" cy="298.26" r="129.45"/><path class="cls-3" d="M59.13,298.26c0-2.05.06-4.08.14-6.1A114.38,114.38,0,0,1,191.71,117.24a175.42,175.42,0,0,1,16.59-15.78,134.6,134.6,0,0,0-57-12.59C76.65,88.87,15.9,149.62,15.9,224.3A135.07,135.07,0,0,0,61.61,325.61,152.2,152.2,0,0,1,59.13,298.26Z"/></svg>